<?xml version="1.0" encoding="UTF-8" standalone="no"?>
<!DOCTYPE svg PUBLIC "-//W3C//DTD SVG 1.1//EN" "http://www.w3.org/Graphics/SVG/1.1/DTD/svg11.dtd">
<svg width="100%" height="100%" viewBox="0 0 3334 1667" version="1.1" xmlns="http://www.w3.org/2000/svg" xmlns:xlink="http://www.w3.org/1999/xlink" xml:space="preserve" xmlns:serif="http://www.serif.com/" style="fill-rule:evenodd;clip-rule:evenodd;stroke-linejoin:round;stroke-miterlimit:2;">
    <g transform="matrix(4.16667,0,0,4.16667,0,-658.333)">
        <g id="Range-1" serif:id="Range 1">
            <path d="M679.078,421.728L661.88,427.097L656.265,424.291L650.825,424.291L629.945,421.728L608.013,431.134L600.818,429.028L581.166,434.467L573.972,441.662L561.514,432.538L545.02,430.959L484.31,423.589L461.499,416.044L427.81,430.958L416.58,425.167L406.579,419.552L402.017,419.552L388.682,414.464L363.766,427.625L336.393,418.324L301.125,427.272L268.487,418.499L242.342,424.291L174.612,431.484C174.612,431.484 161.804,434.117 157.242,431.836C152.68,429.554 140.397,425.869 140.397,425.869L129.519,432.713L102.847,421.728L102.847,506.909L679.078,506.909L679.078,421.728Z" style="fill:rgb(74,130,164);"/>
        </g>
    </g>
</svg>
