<?xml version="1.0" encoding="UTF-8" standalone="no"?>
<!DOCTYPE svg PUBLIC "-//W3C//DTD SVG 1.1//EN" "http://www.w3.org/Graphics/SVG/1.1/DTD/svg11.dtd">
<svg width="100%" height="100%" viewBox="0 0 3334 1667" version="1.1" xmlns="http://www.w3.org/2000/svg" xmlns:xlink="http://www.w3.org/1999/xlink" xml:space="preserve" xmlns:serif="http://www.serif.com/" style="fill-rule:evenodd;clip-rule:evenodd;stroke-linejoin:round;stroke-miterlimit:2;">
    <g transform="matrix(4.16667,0,0,4.16667,0,-658.333)">
        <g id="Range-3" serif:id="Range 3">
            <path d="M0,401.151L800,401.151L800,334.845L790.598,333.847L769.298,329.13L742.711,336.277L713.979,328.986L691.682,336.563L671.384,325.842L660.52,329.987L656.804,329.987L648.655,334.562L639.508,339.278L612.063,327.129L593.481,333.275L544.023,339.279L530.587,340.565L520.438,347.999L514.577,342.137L498.568,337.707L492.708,339.422L474.84,331.759L457.83,333.847L453.399,333.847L448.824,336.134L434.814,331.759L413.087,340.708L404.225,335.134C404.225,335.134 394.219,338.135 390.502,339.994C386.785,341.851 376.352,339.708 376.352,339.708L321.176,333.847L299.876,329.13L273.289,336.277L244.559,328.986L222.26,336.563L201.962,325.842L191.098,329.987L187.382,329.987L179.234,334.562L170.086,339.278L142.642,327.129L124.06,333.275L74.601,339.279L61.165,340.565L51.017,347.999L45.155,342.137L29.147,337.707L23.286,339.422L5.418,331.759L0,332.425L0,401.151Z" style="fill:rgb(194,222,241);"/>
        </g>
    </g>
</svg>
