<?xml version="1.0" encoding="UTF-8" standalone="no"?>
<!DOCTYPE svg PUBLIC "-//W3C//DTD SVG 1.1//EN" "http://www.w3.org/Graphics/SVG/1.1/DTD/svg11.dtd">
<svg width="100%" height="100%" viewBox="0 0 3334 1667" version="1.1" xmlns="http://www.w3.org/2000/svg" xmlns:xlink="http://www.w3.org/1999/xlink" xml:space="preserve" xmlns:serif="http://www.serif.com/" style="fill-rule:evenodd;clip-rule:evenodd;stroke-linejoin:round;stroke-miterlimit:2;">
    <g id="Range-2" serif:id="Range 2" transform="matrix(1,0,0,1,0,-658.333)">
        <g transform="matrix(4.16667,0,0,4.16667,0,0)">
            <path d="M0,348.032L23.877,355.487L31.672,351.591L39.224,351.591L68.212,348.032L98.663,361.091L108.651,358.168L135.935,365.718L145.923,375.707L163.219,363.04L186.118,360.847L270.404,350.615L302.072,340.14L348.844,360.846L364.434,352.807L378.32,345.012L384.654,345.012L403.167,337.948L437.759,356.218L475.761,343.306L524.726,355.73L570.036,343.55L606.335,351.591L700.366,361.578C700.366,361.578 718.147,365.232 724.482,362.065C730.816,358.898 747.868,353.783 747.868,353.783L762.972,363.283L800,348.032L800,466.292L0,466.292L0,348.032Z" style="fill:rgb(94,148,179);"/>
        </g>
        <g transform="matrix(4.16667,0,0,4.16667,0,0)">
            <path d="M569.899,345.426L530.547,356.396L509.061,359.11L521.727,366.347L501.031,387.043L475.822,396.238L451.16,409.999L507.703,395.071L526.477,382.179L544.796,397.107L559.271,384.893L589.353,409.999C589.353,409.999 575.781,375.846 575.781,374.716C575.781,373.585 591.075,358.901 591.075,358.901L569.899,345.426Z" style="fill:rgb(102,154,185);"/>
        </g>
        <g transform="matrix(4.16667,0,0,4.16667,0,0)">
            <path d="M632.979,402.131L680.576,374.484L691.414,374.484L700.576,369.952L747.868,353.783L733.983,380.902L719.235,390.064L709.067,381.46L681.446,396.409L699.347,379.896L681.135,378.22L632.979,402.131Z" style="fill:rgb(102,154,185);"/>
        </g>
        <g transform="matrix(4.16667,0,0,4.16667,0,0)">
            <path d="M475.761,343.306L437.759,356.218L413.842,374.264L401.855,399.143L412.485,383.99L430.806,384.217L444.828,376.978L430.127,426.284L447.994,396.429L460.208,393.037L470.838,378.109L481.016,367.706L500.692,370.872L497.979,357.754L475.761,343.306Z" style="fill:rgb(102,154,185);"/>
        </g>
        <g transform="matrix(4.16667,0,0,4.16667,0,0)">
            <path d="M0,404.759L0,348.032L7.897,357.879L13.875,376.289L31.917,358.247L49.628,360.73L53.626,367.035L66.712,383.431L98.293,366.357C98.293,366.357 118.156,370.661 119.811,370.661C121.466,370.661 143.425,387.028 143.425,387.028L163.178,366.357L234.354,362.676L219.651,372.179L208.281,378.937L198.086,389.679L188.904,461.944L267.79,481.004L278.674,439.518L291.957,419.325L300.563,392.841L319.512,376.937L374.313,351.384L364.231,370.523L336.317,408.731C336.317,408.731 324.246,448.894 324.288,449.186C324.329,449.478 331.021,480.569 331.021,480.569L359.16,482.886L345.917,516.112L204.397,522.565L0,404.759Z" style="fill:rgb(102,154,185);"/>
        </g>
        <g transform="matrix(4.16667,0,0,4.16667,0,0)">
            <path d="M66.483,349.389L39.123,353.918L33.085,353.918L13.65,367.881L31.199,362.597L13.65,381.843L40.633,366.749L43.274,369.389L66.483,349.389Z" style="fill:rgb(250,251,252);"/>
        </g>
        <g transform="matrix(4.16667,0,0,4.16667,0,0)">
            <path d="M92.333,367.881L99.502,362.597L109.126,360.144L134.788,366.936L150.638,387.504L133.184,370.051L119.882,367.504L101.579,382.031L62.332,391.466L98.56,379.956L100.635,371.654L86.106,378.07L95.729,371.654L86.672,371.654L92.333,367.881Z" style="fill:rgb(250,251,252);"/>
        </g>
        <g transform="matrix(4.16667,0,0,4.16667,0,0)">
            <path d="M159.127,387.127L188.563,380.711L236.112,356.748L215.733,369.767L211.583,380.711L205.167,382.598L194.035,393.73L155.731,404.863L192.525,392.033L204.13,380.427L208.281,376.277L191.016,382.22L159.127,387.127Z" style="fill:rgb(250,251,252);"/>
        </g>
        <g transform="matrix(4.16667,0,0,4.16667,0,0)">
            <path d="M302.342,342.031L272.151,352.408L243.094,356.182L272.907,355.051L282.907,355.051L270.454,367.504L223.093,392.976L271.397,368.824L288.19,355.051L278.756,367.314L267.812,374.862L280.643,368.259L293.473,353.541L303.097,348.032L308.38,345.05L302.342,342.031Z" style="fill:rgb(250,251,252);"/>
        </g>
        <g transform="matrix(4.16667,0,0,4.16667,0,0)">
            <path d="M319.512,376.937L349.136,362.786L378.949,346.559L385.364,346.559L402.535,339.388L375.175,366.749L371.778,367.881L375.93,357.126L365.363,369.39L347.438,377.315L364.231,367.881L371.024,354.673L350.646,364.107L319.512,376.937Z" style="fill:rgb(250,251,252);"/>
        </g>
        <g transform="matrix(4.16667,0,0,4.16667,0,0)">
            <path d="M425.176,367.127L439.139,358.258L474.989,345.616L467.819,358.258L467.819,350.711L440.082,359.39L425.176,367.127Z" style="fill:rgb(250,251,252);"/>
        </g>
        <g transform="matrix(4.16667,0,0,4.16667,0,0)">
            <path d="M569.899,345.426L528.955,358.824L509.897,361.654L529.897,360.522L527.445,367.315L493.858,388.071L469.518,397.883L499.897,389.957L536.313,373.164L543.861,377.127L548.578,365.427L566.692,352.408L564.429,360.144L574.429,346.748L569.899,345.426Z" style="fill:rgb(250,251,252);"/>
        </g>
        <g transform="matrix(4.16667,0,0,4.16667,0,0)">
            <path d="M638.015,358.634L682.545,373.542L710.282,372.598L746.511,356.748L740.755,362.504L731.793,377.504L703.489,387.882L729.34,375.617L735.566,363.729L709.339,376.182L683.3,374.674L650.468,383.919L679.715,374.484L638.015,358.634Z" style="fill:rgb(250,251,252);"/>
        </g>
        <g transform="matrix(4.16667,0,0,4.16667,0,0)">
            <path d="M800,350.521L762.547,366.749L797.644,355.051L797.644,359.767L800,350.521Z" style="fill:rgb(250,251,252);"/>
        </g>
        <g transform="matrix(4.16667,0,0,4.16667,0,0)">
            <path d="M651.204,358.668L685.881,368.682L706.912,368.682L716.052,365.427L705.285,367.431L686.382,367.431L651.204,358.668Z" style="fill:rgb(224,243,248);"/>
        </g>
        <g transform="matrix(4.16667,0,0,4.16667,0,0)">
            <path d="M43.274,369.389L57.732,364.346L61.019,367.634L62.928,357.137L71.728,355.016L93.464,361.378L66.483,349.389L43.274,369.389Z" style="fill:rgb(224,243,248);"/>
        </g>
        <g transform="matrix(4.16667,0,0,4.16667,0,0)">
            <path d="M0,348.866L14.79,354.486L10.761,354.486L10.761,359.681L2.278,365.513L7.897,357.879L1.854,354.169L0,348.866Z" style="fill:rgb(224,243,248);"/>
        </g>
        <g transform="matrix(4.16667,0,0,4.16667,0,0)">
            <path d="M101.579,382.031L119.882,367.504L132.061,371.132L149.132,388.203L156.553,394.246L145.95,388.52L123.154,375.054L101.579,382.031Z" style="fill:rgb(224,243,248);"/>
        </g>
        <g transform="matrix(4.16667,0,0,4.16667,0,0)">
            <path d="M109.158,384.279L120.609,381.735L140.225,392.656L109.158,384.279Z" style="fill:rgb(224,243,248);"/>
        </g>
        <g transform="matrix(4.16667,0,0,4.16667,0,0)">
            <path d="M236.112,356.748L233.953,364.028L239.572,356.606L238.512,363.285L219.002,383.008L229.394,367.315L223.243,368.588L214.761,382.371L209.672,387.461L211.583,380.711L215.733,369.767L236.112,356.748Z" style="fill:rgb(224,243,248);"/>
        </g>
        <g transform="matrix(4.16667,0,0,4.16667,0,0)">
            <path d="M309.692,346.149L295.045,354.537L285.031,368.557L278.145,372.813L289.037,368.808L298.362,359.481L298.362,362.674L302.932,357.417L312.446,357.417L310.318,350.656L331.976,356.039L309.692,346.149Z" style="fill:rgb(224,243,248);"/>
        </g>
        <g transform="matrix(4.16667,0,0,4.16667,0,0)">
            <path d="M403.958,340.015L385.556,361.423L399.827,349.28L402.331,350.907L410.218,348.653L426.491,354.662L403.958,340.015Z" style="fill:rgb(224,243,248);"/>
        </g>
        <g transform="matrix(4.16667,0,0,4.16667,0,0)">
            <path d="M480.073,350.156L477.819,356.04L487.709,368.182L486.708,362.174L511.62,367.681L483.829,358.669L480.637,355.476L480.073,350.156Z" style="fill:rgb(224,243,248);"/>
        </g>
        <g transform="matrix(4.16667,0,0,4.16667,0,0)">
            <path d="M576.341,347.276L604.133,353.285L617.778,355.163L604.383,355.163L615.399,358.168L632.676,365.803L647.322,371.312L595.87,356.29L606.011,369.183L595.37,360.421L587.232,357.542L602.881,371.937L635.931,383.705L600.503,372.813L589.862,362.173L585.354,361.172L579.096,353.035L572.646,349.136L574.429,346.748L576.341,347.276Z" style="fill:rgb(224,243,248);"/>
        </g>
        <g transform="matrix(4.16667,0,0,4.16667,0,0)">
            <path d="M747.847,357.542L760.741,365.302L753.229,363.425L754.982,370.436L765.999,376.319L770.506,395.222L764.872,377.321L751.978,371.312L751.102,363.05L747.346,359.419L747.847,357.542Z" style="fill:rgb(224,243,248);"/>
        </g>
    </g>
</svg>
