<?xml version="1.0" encoding="UTF-8" standalone="no"?>
<!DOCTYPE svg PUBLIC "-//W3C//DTD SVG 1.1//EN" "http://www.w3.org/Graphics/SVG/1.1/DTD/svg11.dtd">
<svg width="100%" height="100%" viewBox="0 0 3334 1667" version="1.1" xmlns="http://www.w3.org/2000/svg" xmlns:xlink="http://www.w3.org/1999/xlink" xml:space="preserve" xmlns:serif="http://www.serif.com/" style="fill-rule:evenodd;clip-rule:evenodd;stroke-linejoin:round;stroke-miterlimit:2;">
    <g transform="matrix(4.16667,0,0,4.16667,0,-658.333)">
        <g id="Sky-1" serif:id="Sky 1">
            <path d="M800,266.484C793.103,268.676 787.022,272.702 782.345,278.003C776.993,275.691 771.095,274.404 764.895,274.404C748.066,274.404 733.448,283.843 726.031,297.713C724.33,297.511 722.603,297.396 720.847,297.396C718.969,297.396 717.121,297.528 715.306,297.759C710.213,290.942 702.08,286.529 692.918,286.529C685.764,286.529 679.241,289.222 674.3,293.645C668.686,287.335 660.508,283.356 651.397,283.356C642.354,283.356 634.227,287.276 628.616,293.506C622.127,281.409 609.364,273.181 594.677,273.181C577.23,273.181 562.503,284.793 557.778,300.707C551.771,301.948 546.982,306.517 545.423,312.403C533.81,313.417 524.169,321.296 520.577,331.962C518.645,331.551 516.643,331.333 514.588,331.333C509.771,331.333 505.233,332.522 501.243,334.615C498.737,328.173 492.479,323.604 485.149,323.604C481.139,323.604 477.452,324.974 474.521,327.267C471.082,323.334 466.41,320.506 461.104,319.394C459.198,311.8 452.328,306.175 444.143,306.175C441.891,306.175 439.74,306.605 437.764,307.381C433.808,300.617 426.473,296.071 418.073,296.071C411.379,296.071 405.358,298.956 401.188,303.55C395.246,293.425 384.253,286.623 371.665,286.623C356.345,286.623 343.38,296.691 339.019,310.572C334.471,307.784 329.122,306.175 323.396,306.175C312.532,306.175 303.025,311.966 297.78,320.626C293.689,316.961 288.287,314.729 282.361,314.729C279.894,314.729 277.518,315.12 275.288,315.836C269.188,299.481 254.545,287.295 236.785,284.7C234.116,268.463 220.023,256.074 203.031,256.074C193.243,256.074 184.422,260.19 178.186,266.778C172.128,262.356 164.669,259.74 156.596,259.74C148.039,259.74 140.173,262.68 133.936,267.593C128.71,251 113.205,238.966 94.885,238.966C82.711,238.966 71.785,244.285 64.286,252.72C61.089,253.369 58.111,254.615 55.463,256.33C48.943,253.046 41.585,251.186 33.786,251.186C29.836,251.186 26.002,251.671 22.329,252.566C19.407,247.368 13.844,243.854 7.457,243.854C4.782,243.854 2.252,244.471 0,245.569L0,400C9.109,412.498 791.958,410.608 800,400L800,266.484Z" style="fill:white;"/>
        </g>
    </g>
</svg>
